<?xml version="1.0" encoding="UTF-8" standalone="no"?>
<!DOCTYPE svg PUBLIC "-//W3C//DTD SVG 1.0//EN" "http://www.w3.org/TR/2001/PR-SVG-20010719/DTD/svg10.dtd">
<svg width="42cm" height="32cm" viewBox="-58 17 836 633" xmlns="http://www.w3.org/2000/svg" xmlns:xlink="http://www.w3.org/1999/xlink">
  <g>
    <rect style="fill: #ffffff" x="10" y="509" width="308" height="140"/>
    <rect style="fill: none; fill-opacity:0; stroke-width: 2; stroke: #000000" x="10" y="509" width="308" height="140"/>
  </g>
  <text font-size="12.8" style="fill: #000000;text-anchor:start;font-family:sans-serif;font-style:normal;font-weight:normal" x="24" y="531">
    <tspan x="24" y="531">openSUSE:11.4</tspan>
  </text>
  <g>
    <rect style="fill: #9e9b9b" x="36" y="555" width="99" height="23"/>
    <rect style="fill: none; fill-opacity:0; stroke-width: 2; stroke: #000000" x="36" y="555" width="99" height="23"/>
  </g>
  <text font-size="12.8" style="fill: #000000;text-anchor:start;font-family:sans-serif;font-style:normal;font-weight:normal" x="41.5" y="570.5">
    <tspan x="41.5" y="570.5">Package</tspan>
  </text>
  <g>
    <rect style="fill: #c6c6c6" x="36" y="606" width="101" height="25" rx="10" ry="10"/>
    <rect style="fill: none; fill-opacity:0; stroke-width: 2; stroke-linejoin: round; stroke: #000000" x="36" y="606" width="101" height="25" rx="10" ry="10"/>
  </g>
  <text font-size="12.8" style="fill: #000000;text-anchor:start;font-family:sans-serif;font-style:normal;font-weight:normal" x="51" y="623">
    <tspan x="51" y="623">Repository</tspan>
  </text>
  <g>
    <rect style="fill: #ffffff" x="9.7" y="169" width="308" height="165.4"/>
    <rect style="fill: none; fill-opacity:0; stroke-width: 2; stroke: #000000" x="9.7" y="169" width="308" height="165.4"/>
  </g>
  <text font-size="12.8" style="fill: #000000;text-anchor:start;font-family:sans-serif;font-style:normal;font-weight:normal" x="22.7" y="187.4">
    <tspan x="22.7" y="187.4">openSUSE:11.4:Update</tspan>
  </text>
  <g>
    <rect style="fill: #9e9b9b" x="36.7" y="243.4" width="87.3" height="23"/>
    <rect style="fill: none; fill-opacity:0; stroke-width: 2; stroke: #000000" x="36.7" y="243.4" width="87.3" height="23"/>
  </g>
  <text font-size="12.8" style="fill: #000000;text-anchor:start;font-family:sans-serif;font-style:normal;font-weight:normal" x="45.2" y="256.9">
    <tspan x="45.2" y="256.9">Package</tspan>
  </text>
  <g>
    <rect style="fill: #c6c6c6" x="39.7" y="295.329" width="182.702" height="22.0711" rx="10" ry="10"/>
    <rect style="fill: none; fill-opacity:0; stroke-width: 2; stroke-linejoin: round; stroke: #000000" x="39.7" y="295.329" width="182.702" height="22.0711" rx="10" ry="10"/>
  </g>
  <text font-size="12.8" style="fill: #000000;text-anchor:start;font-family:sans-serif;font-style:normal;font-weight:normal" x="54.7" y="309.4">
    <tspan x="54.7" y="309.4">Code Stream Repository</tspan>
  </text>
  <g>
    <line style="fill: none; fill-opacity:0; stroke-width: 2; stroke-linejoin: round; stroke: #000000" x1="163.7" y1="334.4" x2="163.983" y2="499.264"/>
    <polygon style="fill: #000000" points="163.996,506.764 158.979,496.773 163.983,499.264 168.979,496.755 "/>
    <polygon style="fill: none; fill-opacity:0; stroke-width: 2; stroke: #000000" points="163.996,506.764 158.979,496.773 163.983,499.264 168.979,496.755 "/>
  </g>
  <text font-size="12.8" style="fill: #000000;text-anchor:start;font-family:sans-serif;font-style:normal;font-weight:normal" x="91" y="435">
    <tspan x="91" y="435">Project link</tspan>
  </text>
  <g>
    <polyline style="fill: none; fill-opacity:0; stroke-width: 2; stroke-dasharray: 20; stroke: #000000" points="39.7,306.364 -22,306.364 -22,618.5 26.2639,618.5 "/>
    <polygon style="fill: #000000" points="33.7639,618.5 23.7639,623.5 26.2639,618.5 23.7639,613.5 "/>
    <polygon style="fill: none; fill-opacity:0; stroke-width: 2; stroke: #000000" points="33.7639,618.5 23.7639,623.5 26.2639,618.5 23.7639,613.5 "/>
  </g>
  <text font-size="12.8" style="fill: #000000;text-anchor:start;font-family:sans-serif;font-style:normal;font-weight:normal" x="-15" y="372">
    <tspan x="-15" y="372">Repo path</tspan>
  </text>
  <g>
    <rect style="fill: #ffffff" x="469.4" y="42" width="308" height="290.4"/>
    <rect style="fill: none; fill-opacity:0; stroke-width: 2; stroke: #000000" x="469.4" y="42" width="308" height="290.4"/>
  </g>
  <text font-size="12.8" style="fill: #000000;text-anchor:start;font-family:sans-serif;font-style:normal;font-weight:normal" x="532.4" y="57.4">
    <tspan x="532.4" y="57.4">openSUSE:Maintenance:IDxxx</tspan>
  </text>
  <g>
    <rect style="fill: #9e9b9b" x="505.4" y="242.4" width="99" height="23"/>
    <rect style="fill: none; fill-opacity:0; stroke-width: 2; stroke: #000000" x="505.4" y="242.4" width="99" height="23"/>
  </g>
  <text font-size="12.8" style="fill: #000000;text-anchor:start;font-family:sans-serif;font-style:normal;font-weight:normal" x="521.9" y="254.9">
    <tspan x="521.9" y="254.9">Package</tspan>
  </text>
  <g>
    <rect style="fill: #c6c6c6" x="500.4" y="292.4" width="101" height="25" rx="10" ry="10"/>
    <rect style="fill: none; fill-opacity:0; stroke-width: 2; stroke-linejoin: round; stroke: #000000" x="500.4" y="292.4" width="101" height="25" rx="10" ry="10"/>
  </g>
  <text font-size="12.8" style="fill: #000000;text-anchor:start;font-family:sans-serif;font-style:normal;font-weight:normal" x="515.4" y="307.4">
    <tspan x="515.4" y="307.4">Repository</tspan>
  </text>
  <g>
    <polyline style="fill: none; fill-opacity:0; stroke-width: 2; stroke-dasharray: 4; stroke: #000000" points="36.7,254.9 -35,254.9 -35,566.5 26.2639,566.5 "/>
    <polygon style="fill: #000000" points="33.7639,566.5 23.7639,571.5 26.2639,566.5 23.7639,561.5 "/>
    <polygon style="fill: none; fill-opacity:0; stroke-width: 2; stroke: #000000" points="33.7639,566.5 23.7639,571.5 26.2639,566.5 23.7639,561.5 "/>
  </g>
  <g>
    <polyline style="fill: none; fill-opacity:0; stroke-width: 2; stroke-dasharray: 4; stroke: #000000" points="505.4,253.9 314.7,253.9 314.7,254.9 133.736,254.9 "/>
    <polygon style="fill: #000000" points="126.236,254.9 136.236,249.9 133.736,254.9 136.236,259.9 "/>
    <polygon style="fill: none; fill-opacity:0; stroke-width: 2; stroke: #000000" points="126.236,254.9 136.236,249.9 133.736,254.9 136.236,259.9 "/>
  </g>
  <g>
    <path style="fill: none; fill-opacity:0; stroke-width: 2; stroke-dasharray: 20 4 4 4 4 4; stroke: #000000" d="M 305.418,284.16 A 307.087,307.087 0 0 0 505.4,265.4"/>
    <polygon style="fill: #000000" points="298.156,282.299 309.13,280.162 305.382,284.309 306.45,289.797 "/>
    <polygon style="fill: none; fill-opacity:0; stroke-width: 2; stroke: #000000" points="298.156,282.299 309.13,280.162 305.382,284.309 306.45,289.797 "/>
  </g>
  <text font-size="12.8" style="fill: #000000;text-anchor:start;font-family:sans-serif;font-style:normal;font-weight:normal" x="-57.0938" y="243">
    <tspan x="-57.0938" y="243">Package</tspan>
    <tspan x="-57.0938" y="259">link</tspan>
  </text>
  <g>
    <ellipse style="fill: #ebebeb" cx="686.106" cy="273.9" rx="45.5" ry="32.5"/>
    <ellipse style="fill: none; fill-opacity:0; stroke-width: 2; stroke: #000000" cx="686.106" cy="273.9" rx="45.5" ry="32.5"/>
  </g>
  <text font-size="12.8" style="fill: #000000;text-anchor:start;font-family:sans-serif;font-style:normal;font-weight:normal" x="655.106" y="278.9">
    <tspan x="655.106" y="278.9">patchinfo</tspan>
  </text>
  <g>
    <path style="fill: none; fill-opacity:0; stroke-width: 2; stroke-dasharray: 2; stroke: #000000" d="M 609.63,309.758 A 43.2762,43.2762 0 0 0 659.306,299.502"/>
    <polygon style="fill: #000000" points="603.188,306.242 614.188,308.246 609.187,310.744 608.185,316.244 "/>
    <polygon style="fill: none; fill-opacity:0; stroke-width: 2; stroke: #000000" points="603.188,306.242 614.188,308.246 609.187,310.744 608.185,316.244 "/>
  </g>
  <g>
    <ellipse style="fill: #ebebeb" cx="255.295" cy="209.5" rx="45.5" ry="32.5"/>
    <ellipse style="fill: none; fill-opacity:0; stroke-width: 2; stroke: #000000" cx="255.295" cy="209.5" rx="45.5" ry="32.5"/>
  </g>
  <text font-size="12.8" style="fill: #000000;text-anchor:start;font-family:sans-serif;font-style:normal;font-weight:normal" x="218.5" y="209.6">
    <tspan x="218.5" y="209.6">patchinfo.ID</tspan>
  </text>
  <g>
    <line style="fill: none; fill-opacity:0; stroke-width: 2; stroke-dasharray: 20; stroke: #000000" x1="500.4" y1="304.9" x2="232.138" y2="306.313"/>
    <polygon style="fill: #000000" points="224.638,306.353 234.612,301.3 232.138,306.313 234.664,311.3 "/>
    <polygon style="fill: none; fill-opacity:0; stroke-width: 2; stroke: #000000" points="224.638,306.353 234.612,301.3 232.138,306.313 234.664,311.3 "/>
  </g>
  <text font-size="12.8" style="fill: #000000;text-anchor:start;font-family:sans-serif;font-style:normal;font-weight:normal" x="379" y="312">
    <tspan x="379" y="312"></tspan>
  </text>
  <g>
    <rect style="fill: #ffffff" x="16.3" y="18.7" width="308" height="140"/>
    <rect style="fill: none; fill-opacity:0; stroke-width: 2; stroke: #000000" x="16.3" y="18.7" width="308" height="140"/>
  </g>
  <text font-size="12.8" style="fill: #000000;text-anchor:start;font-family:sans-serif;font-style:normal;font-weight:normal" x="28.702" y="42.6">
    <tspan x="28.702" y="42.6">openSUSE:11.4:SecurityChannel</tspan>
  </text>
  <g>
    <rect style="fill: #9e9b9b" x="42.702" y="66.1" width="87.3" height="23"/>
    <rect style="fill: none; fill-opacity:0; stroke-width: 2; stroke: #000000" x="42.702" y="66.1" width="87.3" height="23"/>
  </g>
  <text font-size="12.8" style="fill: #000000;text-anchor:start;font-family:sans-serif;font-style:normal;font-weight:normal" x="48.202" y="81.6">
    <tspan x="48.202" y="81.6">channel</tspan>
  </text>
  <g>
    <rect style="fill: #c6c6c6" x="42.702" y="120.029" width="225.7" height="22.0711" rx="10" ry="10"/>
    <rect style="fill: none; fill-opacity:0; stroke-width: 2; stroke-linejoin: round; stroke: #000000" x="42.702" y="120.029" width="225.7" height="22.0711" rx="10" ry="10"/>
  </g>
  <text font-size="12.8" style="fill: #000000;text-anchor:start;font-family:sans-serif;font-style:normal;font-weight:normal" x="57.702" y="134.1">
    <tspan x="57.702" y="134.1">Channel Repository</tspan>
  </text>
  <g>
    <rect style="fill: #9e9b9b" x="498.702" y="77.7" width="87.3" height="23"/>
    <rect style="fill: none; fill-opacity:0; stroke-width: 2; stroke: #000000" x="498.702" y="77.7" width="87.3" height="23"/>
  </g>
  <text font-size="12.8" style="fill: #000000;text-anchor:start;font-family:sans-serif;font-style:normal;font-weight:normal" x="504.202" y="93.2">
    <tspan x="504.202" y="93.2">channel</tspan>
  </text>
  <g>
    <rect style="fill: #c6c6c6" x="491.702" y="116.7" width="101" height="25" rx="10" ry="10"/>
    <rect style="fill: none; fill-opacity:0; stroke-width: 2; stroke-linejoin: round; stroke: #000000" x="491.702" y="116.7" width="101" height="25" rx="10" ry="10"/>
  </g>
  <text font-size="12.8" style="fill: #000000;text-anchor:start;font-family:sans-serif;font-style:normal;font-weight:normal" x="506.702" y="131.7">
    <tspan x="506.702" y="131.7">Repository</tspan>
  </text>
  <g>
    <rect style="fill: #9e9b9b" x="208.702" y="258.7" width="87.3" height="23"/>
    <rect style="fill: none; fill-opacity:0; stroke-width: 2; stroke: #000000" x="208.702" y="258.7" width="87.3" height="23"/>
  </g>
  <text font-size="12.8" style="fill: #000000;text-anchor:start;font-family:sans-serif;font-style:normal;font-weight:normal" x="211.702" y="272.6">
    <tspan x="211.702" y="272.6">Package.ID</tspan>
  </text>
  <g>
    <path style="fill: none; fill-opacity:0; stroke-width: 2; stroke-dasharray: 20 4 4 4 4 4; stroke: #000000" d="M 653.933,250.919 A 752.403,752.403 0 0 0 297.18,185.844"/>
    <polygon style="fill: #000000" points="289.698,186.349 299.29,180.606 297.176,185.781 300.048,190.577 "/>
    <polygon style="fill: none; fill-opacity:0; stroke-width: 2; stroke: #000000" points="289.698,186.349 299.29,180.606 297.176,185.781 300.048,190.577 "/>
  </g>
  <g>
    <path style="fill: none; fill-opacity:0; stroke-width: 2; stroke-dasharray: 20 4 4 4 4 4; stroke: #000000" d="M 294.557,92.6356 A 241.401,241.401 0 0 0 498.702,100.7"/>
    <polygon style="fill: #000000" points="287.946,89.1047 299.111,89.6979 294.467,92.81 294.17,98.3923 "/>
    <polygon style="fill: none; fill-opacity:0; stroke-width: 2; stroke: #000000" points="287.946,89.1047 299.111,89.6979 294.467,92.81 294.17,98.3923 "/>
  </g>
  <g>
    <polyline style="fill: none; fill-opacity:0; stroke-width: 2; stroke-dasharray: 4; stroke: #000000" points="498.702,89.2 314.352,89.2 314.352,77.6 139.738,77.6 "/>
    <polygon style="fill: #000000" points="132.238,77.6 142.238,72.6 139.738,77.6 142.238,82.6 "/>
    <polygon style="fill: none; fill-opacity:0; stroke-width: 2; stroke: #000000" points="132.238,77.6 142.238,72.6 139.738,77.6 142.238,82.6 "/>
  </g>
  <g>
    <rect style="fill: #9e9b9b" x="198.702" y="62.7" width="87.3" height="25.3"/>
    <rect style="fill: none; fill-opacity:0; stroke-width: 2; stroke: #000000" x="198.702" y="62.7" width="87.3" height="25.3"/>
  </g>
  <text font-size="12.8" style="fill: #000000;text-anchor:start;font-family:sans-serif;font-style:normal;font-weight:normal" x="205.502" y="79.3">
    <tspan x="205.502" y="79.3">channel.ID</tspan>
  </text>
  <g>
    <line style="fill: none; fill-opacity:0; stroke-width: 2; stroke-dasharray: 20; stroke: #000000" x1="491.702" y1="129.2" x2="278.138" y2="130.983"/>
    <polygon style="fill: #000000" points="270.638,131.046 280.596,125.962 278.138,130.983 280.679,135.962 "/>
    <polygon style="fill: none; fill-opacity:0; stroke-width: 2; stroke: #000000" points="270.638,131.046 280.596,125.962 278.138,130.983 280.679,135.962 "/>
  </g>
  <g>
    <path style="fill: none; fill-opacity:0; stroke-width: 2; stroke-dasharray: 20 4 4 4 4 4; stroke: #000000" d="M 521.402,433 A 54.7727,54.7727 0 0 0 437.542,431.246"/>
    <polygon style="fill: #000000" points="433.017,437.099 433.91,425.954 436.896,430.68 442.469,431.127 "/>
    <polygon style="fill: none; fill-opacity:0; stroke-width: 2; stroke: #000000" points="433.017,437.099 433.91,425.954 436.896,430.68 442.469,431.127 "/>
  </g>
  <text font-size="12.7998" style="fill: #000000;text-anchor:start;font-family:sans-serif;font-style:normal;font-weight:normal" x="527.402" y="425">
    <tspan x="527.402" y="425">Request accept operation</tspan>
    <tspan x="527.402" y="441">(binarys may get re-signed)</tspan>
  </text>
  <g>
    <path style="fill: none; fill-opacity:0; stroke-width: 2; stroke-dasharray: 2; stroke: #000000" d="M 686.106,241.4 A 90.4104,90.4104 0 0 0 602.396,129.108"/>
    <polygon style="fill: #000000" points="594.934,129.059 604.598,123.438 602.419,128.586 605.229,133.418 "/>
    <polygon style="fill: none; fill-opacity:0; stroke-width: 2; stroke: #000000" points="594.934,129.059 604.598,123.438 602.419,128.586 605.229,133.418 "/>
  </g>
  <text font-size="12.7998" style="fill: #000000;text-anchor:start;font-family:sans-serif;font-style:normal;font-weight:normal" x="683.4" y="135.2">
    <tspan x="683.4" y="135.2">aggregate </tspan>
    <tspan x="683.4" y="151.2">by channel</tspan>
    <tspan x="683.4" y="167.2">definition</tspan>
  </text>
  <g>
    <path style="fill: none; fill-opacity:0; stroke-width: 2; stroke-dasharray: 2; stroke: #000000" d="M 604.4,253.9 A 24.567,24.567 0 0 0 631.823,276.688"/>
    <polygon style="fill: #000000" points="638.639,274.964 632.224,284.121 632.043,278.533 627.465,275.326 "/>
    <polygon style="fill: none; fill-opacity:0; stroke-width: 2; stroke: #000000" points="638.639,274.964 632.224,284.121 632.043,278.533 627.465,275.326 "/>
  </g>
</svg>
